<svg id="레이어_1" data-name="레이어 1" xmlns="http://www.w3.org/2000/svg" viewBox="0 0 699.87 180.06"><defs><style>.cls-1{fill:#fff;}</style></defs><title>logo_conrad</title><path class="cls-1" d="M-2349.09,241.24c0,19.28,0,37.23,0,55.18,0,4.84,3.33,6.92,8.13,9.08h-28.83c6.85-2.89,7.22-8.22,7.21-13.88q-.09-37.44,0-74.89v-6.48l70.76,67.14V248c0-7.16-.08-14.32,0-21.47.08-5.09-.66-9.63-7.65-12.11h26.74c-6.37,3.34-6.26,8.52-6.25,13.69q0,36.71,0,73.4v6.21Z" transform="translate(2615.96 -210.25)"/><path class="cls-1" d="M-2449.3,210.89c27.48,0,46.31,19.28,46.2,47.23-.12,27.36-20.51,48.82-46.33,48.74-26.3-.09-46.39-21.38-46.37-49.14C-2495.78,229.72-2477,210.86-2449.3,210.89Zm30.39,45.74a45.2,45.2,0,0,0-3.11-16.44c-3.93-10.42-11.12-17.36-22.35-19-11.48-1.66-20.92,2.42-27.93,11.71-9.93,13.17-10.27,35-.82,49.39,5.88,8.94,13.93,14.34,24.94,13.6,11.18-.75,19.2-6.64,24.36-16.53C-2420.36,272.74-2418.94,265.66-2418.91,256.63Z" transform="translate(2615.96 -210.25)"/><path class="cls-1" d="M-2001.94,305.86c5.65-2.67,6.55-7.73,6.59-12.77q.25-33.45,0-66.89c0-4.77-.84-9.53-6.85-11.35,18.85.46,37.6-2.88,55.85,3,20.45,6.62,30.37,21.29,30.22,44.44-.11,18.57-11.86,33.6-30.85,39.57a95.72,95.72,0,0,1-27,3.93C-1983.3,306-1992.62,305.86-2001.94,305.86Zm19.87-48.65c0,10-.06,19.94,0,29.92,0,5.58,1.94,7.55,7.47,7.68a74.6,74.6,0,0,0,12.92-.58c15.12-2.27,25.34-11.36,28.3-25.51,3.39-16.25-3.1-32.37-15.83-40-9.11-5.45-19.09-4.77-29-4.9-3.1,0-4,.91-3.91,4C-1982,237.59-1982.07,247.4-1982.07,257.21Z" transform="translate(2615.96 -210.25)"/><path class="cls-1" d="M-2229.56,214.24c14.07.62,26.93-.83,39.67.89,9,1.21,16.87,4.7,20.22,14a22.75,22.75,0,0,1-3.81,23,18,18,0,0,1-8,5.78c-2.48.89-2.69,1.85-1,3.77,10.5,12,19.78,25.1,30.94,36.56,2.25,2.32,4.75,4.4,8,7.37-6.68,0-12.27,0-17.86,0a4.19,4.19,0,0,1-3.32-1.92q-18.26-22.45-36.51-44.93c-.17-.21-.12-.61-.2-1.14,3.52-1.26,7.16-2.32,10.29-4.59,5.74-4.17,8.43-11.09,6.63-17.49s-7.32-10.77-14.26-11.47c-.66-.06-1.33,0-2,0-8.86-.13-9.18.09-9.07,8.93.23,19.13-.57,38.26.42,57.38.31,6,1.34,11.53,7.79,15.22h-28.23c7.46-5.67,6.86-13.21,6.85-20.62q-.06-28.21,0-56.42C-2223,223.22-2223.87,218.26-2229.56,214.24Z" transform="translate(2615.96 -210.25)"/><path class="cls-1" d="M-2533.74,282.23c-.51,6.51-1,11.76-1.33,17-.11,1.64-1.14,2.26-2.5,2.67-15.35,4.57-30.77,7.16-46.56,2.09-21.09-6.77-33-25.57-31.74-50.25,1-19.75,16.52-37.49,36.52-41.63,11.1-2.3,22.2-1.34,33.25.36,3,.47,5.94,1.08,9-2v20c-.15,0-.62.21-.73.08-10.84-12.34-31.47-12.83-43.79-5.9s-19.33,22.95-16.94,39.32c2,13.79,7.91,25,21.76,29.66,14.66,4.95,28.22,2.26,39.82-8.46C-2536.3,284.48-2535.55,283.84-2533.74,282.23Z" transform="translate(2615.96 -210.25)"/><path class="cls-1" d="M-2075.68,211.11l33.54,75.5c1,2.27,2.11,4.51,3,6.84,1.93,5.07,4.53,9.55,11.29,12.21h-29.6c7.13-3.34,4.91-8.08,2.95-13-6.58-16.5-13-33.07-19.52-49.61-.53-1.34-1.13-2.64-2.16-5-3.53,8.91-6.7,16.83-9.82,24.77-4.07,10.36-8,20.8-12.21,31.08-2,4.8-2.89,8.93,4.46,11.87h-28.91c7-3.4,8.76-10.43,11.54-16.68q16.44-36.85,32.76-73.78C-2077.77,214-2077.51,212.45-2075.68,211.11Z" transform="translate(2615.96 -210.25)"/><path class="cls-1" d="M-2516.1,389.48H-2528c4.3-4,2.46-8.9,2.48-13.45,0-1.16-1.11-1.55-2.16-1.61-1.33-.07-2.67-.07-4-.07-9,0-10.65,2.24-8.76,11.25.44,2.09,1.87,2.73,3.45,3.74h-11.08c3.79-5.89,3-27.4-1.33-30.22h11.55c-2.37,2.11-3.66,9.72-2.06,11.58,1.07,1.24,12.89,1.28,14,0,1.86-2.05.38-9.3-2.55-11.63h11C-2521.52,363.75-2520.83,386.21-2516.1,389.48Z" transform="translate(2615.96 -210.25)"/><path class="cls-1" d="M-2286.43,365.58a12.68,12.68,0,0,0-1.11-2.64,4.82,4.82,0,0,0-6.59-1.65c-2.4,1.21-2.48,3.65-1.6,5.67,2.45,5.66,7.12,9.57,11.66,13.42,2.2,1.86,2.17-1,2.61-2.08.92-2.16.61-4.11-3-5.07,7.45-1,8.41-.11,6.6,4.83-2.35,6.44-2,7.16,4.4,9.83.59.25,1.22.41,2.81.93-4.66,1.42-8.24,1-11.55-.78-1.72-.94-2.94-1-4.48.17-2.73,2-5.95,1.93-9.12,1.75-4.14-.24-7.48-2-9-6-1.4-3.8-.26-7.33,2.66-10,1.87-1.68,3-2.85,1.69-5.67-1.52-3.24-.09-6.3,2.89-8.17,3.59-2.24,7.69-2.8,11.39-.7C-2283.86,360.7-2285.67,363.29-2286.43,365.58Zm-6.17,21.48c2-.06,4.43.06,5.2-1.91.64-1.63-1.74-2.48-2.76-3.67a35.45,35.45,0,0,0-4.2-4.2c-1.27-1-1.84-3.92-4-2.73-1.72,1-1.86,3.36-1.67,5.42A7.35,7.35,0,0,0-2292.6,387.06Z" transform="translate(2615.96 -210.25)"/><path class="cls-1" d="M-2489.42,390c-9.44,0-16.27-6.75-16.19-15.9s7.3-15.9,17.05-15.8,16.27,6.09,16.31,15.1C-2472.21,383.33-2479.14,390-2489.42,390Zm-.54-29.11c-4.7-.19-7.45,2.33-8.81,6.55a18.61,18.61,0,0,0-.28,9.8c1.37,6.28,6,10.62,11.47,10.53q7.93-.12,9.24-11C-2477.28,368.09-2482.59,360.82-2490,360.87Z" transform="translate(2615.96 -210.25)"/><path class="cls-1" d="M-2121.46,390c-9.63-.09-15.75-6.44-15.61-16.19.14-9.36,7.1-15.68,17.08-15.51,9.78.17,16,6.19,15.94,15.39C-2104.13,383.59-2111,390.08-2121.46,390Zm11.39-15.34c.26-1.53-.31-3.61-1-5.66-2-5.9-6.86-9-12.59-8-4.51.75-7.32,4.79-7.46,10.85a27.24,27.24,0,0,0,.21,4.95c1.1,6.66,6.34,11.36,12.09,11C-2113.51,387.4-2110.15,382.63-2110.07,374.64Z" transform="translate(2615.96 -210.25)"/><path class="cls-1" d="M-2059.86,389c-7.36,1.85-11.64-.61-14.85-5.57-1-1.54-2.17-3-3.14-4.51s-2.42-2.35-4.22-1.76-1.07,2.26-1,3.44c.08,3.21-1.17,7,3.18,8.86h-10.85c3.71-4.72,3.3-27-.69-30.47,4.68,0,9.18-.14,13.65.05,3.11.13,6.05,1.22,7.31,4.36s1,6.49-1.53,8.83c-2.85,2.62-2.21,4.49.11,6.94C-2068.58,382.73-2066.24,387.38-2059.86,389Zm-23.3-21.75c0,7.36.14,7.76,3.11,7.61,4.18-.21,5-3.18,5.05-6.58,0-4.21-2.64-7.52-6-7C-2085.43,361.89-2082,365.62-2083.16,367.25Z" transform="translate(2615.96 -210.25)"/><path class="cls-1" d="M-2241.76,359c4.8,0,9,0,13.1,0,3.5,0,6.66.87,8.26,4.42a7.77,7.77,0,0,1-1.79,9.18c-2.34,2.3-2.16,3.88,0,6.1,3.5,3.65,5.74,8.68,11.26,10.28-4.47,1.16-8.56,1-11.64-3.1-1.89-2.52-3.79-5-5.66-7.59a3.23,3.23,0,0,0-3.56-1.15c-1.7.36-1.2,1.85-1.11,2.85.32,3.27-1.82,7.44,3.13,9.42H-2240c3-4.82,2.2-10.28,1.87-15.46C-2238.49,369-2235.55,363.26-2241.76,359Zm8.31,9c1.9,2-2.09,6.63,3.38,6.84,4.18.16,5.12-3,5.15-6.47,0-3.79-1.48-7-5.48-7C-2235.48,361.32-2231.61,365.8-2233.45,368Z" transform="translate(2615.96 -210.25)"/><path class="cls-1" d="M-2424.85,359c5.16,0,9.64,0,14.11,0,5-.07,5-.12,4.51,5.21-1.63.3-1.2-1.7-2.24-2-2.27-.69-5.35-1.43-6.65.08-1.94,2.26-1.13,5.82-.52,8.62.52,2.35,3.3,1.3,4.77,1,5.57-1.25,5,1.59,3.81,5.26-2.41-3.08-5.43-3.22-8.43-1.62-1.3.7-.35,10,.85,11,2.15,1.75,7.15.32,9.25-2.64,1,5.46.48,6.11-4.56,6-4.63-.07-9.27,0-14.34,0C-2420,385.11-2420.21,362.49-2424.85,359Z" transform="translate(2615.96 -210.25)"/><path class="cls-1" d="M-2202.58,359c4.86,0,9.39.36,13.83-.1,4.66-.48,6.16.87,4.3,5.66a5.47,5.47,0,0,0-7.75-2.47c-3.09,1.7-2,5.89-1.11,8.12,1.64,4,5.71.86,8.79,1.37.56,1.76.25,3.51-.34,5.89-2.35-3.39-5.3-3.7-8.25-1.91-1.4.85-.52,10,.77,10.93,2.23,1.67,7.11.28,9.28-2.64.49,5.83.18,6.1-5.51,6-4.31-.11-8.63,0-13.56,0,5.05-4.92,3.06-10.69,2.88-15.86C-2199.42,368.94-2196.25,363-2202.58,359Z" transform="translate(2615.96 -210.25)"/><path class="cls-1" d="M-2437.46,364.47c-1.57-1.07-2.57-2.47-4.63-2.72-4-.47-5.85.38-5.56,4.89.36,5.46.1,11,.09,16.44,0,2.65-.3,5.45,3.4,6.29h-13.15c4.1-1.53,4-3.95,4-6.42,0-5.15.07-10.3-.06-15.45,0-1.87,1.08-4.64-1.16-5.38-2.53-.84-5.56-1-8,.89-.47.38-.59,1.22-1.66,1-.36-3.93.74-5.7,5.36-5.22a95.72,95.72,0,0,0,16.93.14C-2437.7,358.64-2436,359.67-2437.46,364.47Z" transform="translate(2615.96 -210.25)"/><path class="cls-1" d="M-2029.2,364.11c-1.69.19-1.7-1-2.36-1.39a8.78,8.78,0,0,0-7.21-.76c-2.39.8-1.15,3.44-1.21,5.24-.16,5.31,0,10.62-.06,15.93,0,2.78.1,5.42,3.79,6.15h-12.16c2.9-1.59,2.88-4.14,2.92-6.58.08-5,0-10,0-14.94,0-5.91-3.51-8.06-8.74-5.38-.81.42-1,2.16-2.12,1.52-.94-.54-.21-1.83,0-2.76s0-2.61,1.75-2.46c8,.63,15.92.1,23.86.33C-2027.42,359.1-2030.15,362.39-2029.2,364.11Z" transform="translate(2615.96 -210.25)"/><path class="cls-1" d="M-2151.85,366.14c-1.34-2-1.9-3.45-3-4.27-2.19-1.7-4.8-1.85-6.78.22-1.79,1.87-1.12,4.11.6,5.78s3.85,3.18,5.72,4.82c4.46,3.92,5.69,9.25,3.14,13.31-2.27,3.61-9,5.4-13.6,3.62-2.46-1-2.63-1.76-1.68-7.82,1.61.3,1.09,1.81,1.56,2.7a5.66,5.66,0,0,0,5.68,3.29,4.52,4.52,0,0,0,4.27-2.93,5.25,5.25,0,0,0-1.53-5.9c-1.77-1.75-3.86-3.17-5.68-4.86-4-3.67-5-8-3-11.59s7.88-5.35,12.47-3.73C-2149.72,360.18-2152.19,363-2151.85,366.14Z" transform="translate(2615.96 -210.25)"/><path class="cls-1" d="M-2341.36,365.55c-.9-1.39-1.4-2.74-2.35-3.53-2.14-1.78-4.74-2.06-6.76,0s-1.22,4.34.7,6.12,4.13,3.34,6.06,5.16c4.15,3.92,5.05,9.1,2.38,13-2.4,3.47-9.41,5.2-13.66,3.26-3.74-1.7-1.26-4.92-2-7.53,2.46.15,1.61,2.32,2.51,3.33,2.29,2.58,5,3.58,7.89,1.51s2.41-5,.37-7.39c-1.82-2.11-4.28-3.66-6.3-5.61-3.08-3-4.74-6.56-2.87-10.76,1.72-3.83,5.29-4.78,9.14-4.75C-2340.49,358.33-2339.95,359.15-2341.36,365.55Z" transform="translate(2615.96 -210.25)"/><path class="cls-1" d="M-2015.74,380.94c.81,1.91,1.12,3.48,2,4.58,2.19,2.71,5.15,3.19,7.93,1.15s2.39-4.74.4-7-4.46-3.94-6.59-6c-3.93-3.85-4.76-8.09-2.45-11.57,2.1-3.16,8-4.65,12.21-3.38,4,1.2,1.09,4.21,2.21,6.23-.61,0-1.07.1-1.13,0-1.37-2.68-3.09-4.75-6.55-4.1-1.58.3-2.92,1.09-3.27,2.68-.75,3.45,2,4.94,4.09,6.76a40.28,40.28,0,0,1,5.46,5c3.1,3.81,2.88,8.54-.2,11.8-2.61,2.78-10.81,4.19-13.46,2S-2016.31,384.13-2015.74,380.94Z" transform="translate(2615.96 -210.25)"/><path class="cls-1" d="M-2369.79,383.34c-.15,6.68-.15,6.6-6.41,6.41-4.3-.13-8.6,0-13.11,0,3.82-6.28,3.17-27.55-.88-30.65h12.75c-3.58,1.15-4.25,2.95-4.18,5.43.14,5.48,0,11,.07,16.45,0,2.2-.65,5.22,2.45,5.76,2.91.5,6.43,1.55,8.24-2.43C-2370.71,383.94-2370.24,383.73-2369.79,383.34Z" transform="translate(2615.96 -210.25)"/><path class="cls-1" d="M-1976.49,371.29c0-3.25.09-5.55,0-7.83-.06-1.18.33-2.88-1.85-2.77-1.92.1-3,.74-3.06,3s.68,4.85-.94,7.4c-2.81-3.55,1.6-9-3.84-11.47,5.73-.11,11.91-2.88,15.26,4.25,2.68-1.06,3-5.37,5.28-4.43s.71,4.48.92,6.86c.12,1.39.55,3-.83,4.52-2.28-1.73-.41-4.45-1.82-6.61-2,2.7-4.19,3.74-6.11,0C-1975.42,366.24-1973.11,369.14-1976.49,371.29Z" transform="translate(2615.96 -210.25)"/></svg>