<svg id="레이어_1" data-name="레이어 1" xmlns="http://www.w3.org/2000/svg" viewBox="0 0 371.64 74.33"><defs><style>.cls-1{fill:#fff;}</style></defs><title>sub_rooms</title><path class="cls-1" d="M-481.72,199v-5.58a9.71,9.71,0,0,0,4.37-1,4.77,4.77,0,0,0,2.13-3,23.68,23.68,0,0,0,.61-6V142.85c0-1.69.05-3.32.15-4.88s.19-2.77.25-3.65q-1.73.1-4,.15c-1.49,0-2.67.09-3.55.15v-6.7c4.47-.06,9-.12,13.45-.15s9,0,13.46,0a50.43,50.43,0,0,1,15.69,2.13,19,19,0,0,1,9.74,6.65q3.3,4.53,3.2,11.83a20.38,20.38,0,0,1-1.93,8.12,18.8,18.8,0,0,1-5.78,7,29.5,29.5,0,0,1-10.56,4.77,13.91,13.91,0,0,1,3.7,3,31.51,31.51,0,0,1,3.3,4.26l5.48,8.43a56.37,56.37,0,0,0,3.76,5.23,13.61,13.61,0,0,0,3.56,3.15,9.27,9.27,0,0,0,4.36,1.17V199h-15.43a23.16,23.16,0,0,1-4-4.26q-1.89-2.55-3.91-5.89l-7.31-11.68-2.49-4A15.53,15.53,0,0,0-456,170c-1.08.07-2.07.1-3,.1s-1.82,0-2.84-.1v13.81c0,1.9,0,3.62-.1,5.18s-.17,2.77-.3,3.65c.74-.06,1.64-.11,2.69-.15l3.09-.1c1,0,1.83,0,2.44,0V199Zm25.18-35.13a24.7,24.7,0,0,0,9.39-1.73,11.31,11.31,0,0,0,5.59-5.08,18.38,18.38,0,0,0,1.88-8.83,17.17,17.17,0,0,0-1.37-7.41,10.74,10.74,0,0,0-3.66-4.37,14.06,14.06,0,0,0-5-2.08,26.48,26.48,0,0,0-5.34-.56,8.94,8.94,0,0,0-4.16.81,4.38,4.38,0,0,0-2.08,2.9,22.67,22.67,0,0,0-.56,5.63v20.41l2.54.21C-458.4,163.83-457.49,163.87-456.54,163.87Z" transform="translate(481.72 -126.3)"/><path class="cls-1" d="M-380.08,200.62a38,38,0,0,1-16.45-3.24,30,30,0,0,1-11-8.69,35.94,35.94,0,0,1-6.15-12,47.07,47.07,0,0,1-1.93-13.2,41.47,41.47,0,0,1,2.14-13,37.74,37.74,0,0,1,6.54-12,33.14,33.14,0,0,1,11.12-8.83,34.73,34.73,0,0,1,15.74-3.35,35.5,35.5,0,0,1,16,3.35A31.49,31.49,0,0,1-353,138.53a38.54,38.54,0,0,1,6.4,12,42,42,0,0,1,2.08,12.89,40.87,40.87,0,0,1-2.13,12.79,38.35,38.35,0,0,1-6.55,12,33.19,33.19,0,0,1-11.12,8.93A34.32,34.32,0,0,1-380.08,200.62Zm.81-6.29a16.78,16.78,0,0,0,9.6-2.64,20.39,20.39,0,0,0,6.35-6.91,34.16,34.16,0,0,0,3.6-9.39,45.28,45.28,0,0,0,1.17-10.1A55,55,0,0,0-360,152.55a34.89,34.89,0,0,0-4.22-10.41,21.34,21.34,0,0,0-7.05-7.06,18,18,0,0,0-9.85-2.49,16.89,16.89,0,0,0-9.5,2.8,21.21,21.21,0,0,0-6.39,7,32.49,32.49,0,0,0-3.61,9.5A48.31,48.31,0,0,0-401.71,162a50.12,50.12,0,0,0,1.22,10.66,41,41,0,0,0,3.86,10.56,22.53,22.53,0,0,0,7,8A17.55,17.55,0,0,0-379.27,194.33Z" transform="translate(481.72 -126.3)"/><path class="cls-1" d="M-301.18,200.62a38,38,0,0,1-16.45-3.24,30,30,0,0,1-11-8.69,35.73,35.73,0,0,1-6.14-12,46.71,46.71,0,0,1-1.93-13.2,41.75,41.75,0,0,1,2.13-13,37.77,37.77,0,0,1,6.55-12,33,33,0,0,1,11.12-8.83,34.7,34.7,0,0,1,15.74-3.35,35.5,35.5,0,0,1,16,3.35,31.58,31.58,0,0,1,11.07,8.88,38.51,38.51,0,0,1,6.39,12,42,42,0,0,1,2.09,12.89,40.6,40.6,0,0,1-2.14,12.79,38.15,38.15,0,0,1-6.55,12,33.15,33.15,0,0,1-11.11,8.93A34.35,34.35,0,0,1-301.18,200.62Zm.81-6.29a16.78,16.78,0,0,0,9.6-2.64,20.36,20.36,0,0,0,6.34-6.91,33.86,33.86,0,0,0,3.61-9.39,45.85,45.85,0,0,0,1.16-10.1,54.47,54.47,0,0,0-1.42-12.74,34.88,34.88,0,0,0-4.21-10.41,21.36,21.36,0,0,0-7.06-7.06,18,18,0,0,0-9.85-2.49,16.85,16.85,0,0,0-9.49,2.8,21.24,21.24,0,0,0-6.4,7,32.47,32.47,0,0,0-3.6,9.5A47.66,47.66,0,0,0-322.81,162a50.12,50.12,0,0,0,1.22,10.66,41,41,0,0,0,3.86,10.56,22.51,22.51,0,0,0,7,8A17.61,17.61,0,0,0-300.37,194.33Z" transform="translate(481.72 -126.3)"/><path class="cls-1" d="M-220.56,200q-3.75-9-7.56-17.93t-7.57-17.92q-1-2.32-2.33-5.79t-2.64-7.61q-1.32-4.17-2.54-8.53c.13,2.78.22,5.4.25,7.87s0,4.86-.05,7.16q0,2.73-.05,6t-.15,6.7q-.11,3.45-.16,7t0,6.75c-.06,1.69-.13,3.35-.2,5s-.17,3-.3,4l4.11-.2c1.52-.07,2.72-.1,3.6-.1V199h-21.93v-5.58a10.29,10.29,0,0,0,4.16-.87,4.63,4.63,0,0,0,2.24-2.69,16.59,16.59,0,0,0,.71-5.48l1.12-41.33c.06-1.69.11-3.31.15-4.87s.08-2.85.15-3.86c-1.08.07-2.37.12-3.86.15s-2.71.09-3.65.15v-6.7h20.2l16,39.6q1,2.64,2.18,5.69t2.28,6q1.13,2.94,1.93,5.18h.1q1.32-3.25,2.54-6.75c.81-2.34,1.63-4.52,2.44-6.55q4.06-10.77,8.28-21.48t8.47-21.68H-172v5.59a10.09,10.09,0,0,0-4,.71,4.64,4.64,0,0,0-2.49,2.69,16.18,16.18,0,0,0-.71,6.14l1.93,41.33a31.83,31.83,0,0,1,.05,4.67c-.1,1.49-.19,2.67-.26,3.55,1.15-.13,2.49-.22,4-.25s2.73,0,3.61,0V199h-26.4v-5.58a10.28,10.28,0,0,0,4.16-.92,4.78,4.78,0,0,0,2.34-2.89,17.47,17.47,0,0,0,.5-6.15L-190.5,158c0-.88-.07-2.17-.21-3.86s-.23-3.52-.3-5.48-.14-3.83-.2-5.59c-.21.48-.43.95-.66,1.42a7.89,7.89,0,0,0-.56,1.42L-213.25,200Z" transform="translate(481.72 -126.3)"/><path class="cls-1" d="M-120,150.26a26,26,0,0,0-2.94-9.39,16.12,16.12,0,0,0-5.94-6.2,17.25,17.25,0,0,0-8.89-2.18,12.25,12.25,0,0,0-8.27,2.84,8.92,8.92,0,0,0-3.3,7,9.45,9.45,0,0,0,2,6,18.55,18.55,0,0,0,5.74,4.62q3.75,2.09,8.93,4.32,3.85,1.62,7.82,3.6a39.4,39.4,0,0,1,7.31,4.72,22.91,22.91,0,0,1,5.43,6.35,16.83,16.83,0,0,1,2.09,8.58,18.24,18.24,0,0,1-3.1,10.46,20.34,20.34,0,0,1-8.78,7.11,32.74,32.74,0,0,1-13.41,2.53,35.53,35.53,0,0,1-9-1.26,30.86,30.86,0,0,1-8.73-3.81l.31,4.36h-6.91l-.2-23h5.79q1.11,8.64,6.39,13a19.11,19.11,0,0,0,12.7,4.42,15.79,15.79,0,0,0,6.7-1.37,11.45,11.45,0,0,0,4.62-3.76,9.26,9.26,0,0,0,1.67-5.43,9,9,0,0,0-2.43-6.5,21.65,21.65,0,0,0-6.2-4.37c-2.5-1.21-5.11-2.4-7.82-3.55-3-1.28-5.92-2.66-8.63-4.11a36.52,36.52,0,0,1-7.16-5,20.9,20.9,0,0,1-4.87-6.45,19.58,19.58,0,0,1-1.78-8.63,19.62,19.62,0,0,1,1.12-6.24,17.2,17.2,0,0,1,3.71-6.14,19.08,19.08,0,0,1,6.95-4.67,28.2,28.2,0,0,1,10.87-1.83,38.36,38.36,0,0,1,8.88,1.16,24,24,0,0,1,8.48,3.81l-.41-4.26h7v23.25Z" transform="translate(481.72 -126.3)"/></svg>